<svg width="186" height="41" viewBox="0 0 186 41" fill="none" xmlns="http://www.w3.org/2000/svg">
<g clip-path="url(#clip0_317_74)">
<path fill-rule="evenodd" clip-rule="evenodd" d="M59.0372 2.72861C59.0372 1.33922 60.1758 0.212891 61.5805 0.212891H66.0111C67.0108 0.212891 67.9797 0.55559 68.7527 1.18265L70.1005 2.27593L70.1342 2.30634C70.1653 2.29596 70.1964 2.28582 70.2276 2.27593C72.6592 1.50554 75.6094 1.35903 78.6205 1.35903C81.6316 1.35903 84.5818 1.50554 87.0134 2.27593C87.0446 2.28582 87.0757 2.29596 87.1068 2.30634L87.1405 2.27593L88.4883 1.18265C89.2613 0.55559 90.2302 0.212891 91.2299 0.212891H95.6605C97.0652 0.212891 98.2038 1.33922 98.2038 2.72861V4.28379C98.2038 5.48704 97.6914 6.63463 96.7922 7.44503L95.7049 8.42502C95.1741 8.90344 94.537 9.25162 93.845 9.44144L93.5878 9.512C94.5953 11.8899 95.1519 14.4317 95.1519 16.4879C95.1519 24.7593 89.978 28.3316 85.4192 31.4792C81.8291 33.958 78.6205 36.1733 78.6205 40.2129C78.6205 36.1733 75.4119 33.958 71.8218 31.4792C67.263 28.3316 62.0891 24.7593 62.0891 16.4879C62.0891 14.4317 62.6457 11.8899 63.6532 9.512L63.396 9.44144C62.704 9.25162 62.0669 8.90344 61.5361 8.42502L60.4488 7.44503C59.5496 6.63463 59.0372 5.48704 59.0372 4.28379V2.72861ZM81.9268 23.2501C81.9268 23.6453 81.7526 24.0242 81.4426 24.3037C81.1326 24.5831 80.7121 24.7401 80.2736 24.7401C79.8951 24.7401 79.5299 24.623 79.2377 24.4112C79.7351 25.7282 81.008 26.9761 82.9441 24.9693C84.6533 23.1046 82.8681 19.1717 81.1289 16.8379C80.5492 16.06 79.5975 15.6856 78.6205 15.6856C77.6435 15.6856 76.6918 16.06 76.1121 16.8379C74.3729 19.1717 72.5877 23.1046 74.2969 24.9693C76.233 26.9761 77.5059 25.7282 78.0033 24.4112C77.7111 24.623 77.3459 24.7401 76.9674 24.7401C76.5289 24.7401 76.1084 24.5831 75.7984 24.3037C75.4884 24.0242 75.3142 23.6453 75.3142 23.2501H81.9268ZM72.2898 11.608H67.6844L71.3139 14.4827C72.1126 15.1152 73.28 14.913 73.7742 14.0565C74.3982 12.9751 73.5694 11.608 72.2898 11.608ZM84.9512 11.608H89.5566L85.9271 14.4827C85.1284 15.1152 83.961 14.913 83.4668 14.0565C82.8428 12.9751 83.6716 11.608 84.9512 11.608Z" fill="#727272"/>
<path d="M103.69 28.5467H107.77V13.1567H103.69V28.5467ZM103.69 10.7567H107.77V7.09668H103.69V10.7567Z" fill="#727272"/>
<path d="M110.399 33.5863H114.479V26.8063H114.539C115.409 28.1263 116.819 28.9963 118.979 28.9963C122.939 28.9963 125.639 25.8463 125.639 20.8663C125.639 16.0663 123.029 12.7363 118.949 12.7363C116.849 12.7363 115.409 13.7263 114.419 15.0763H114.329V13.1563H110.399V33.5863ZM118.109 25.6063C115.679 25.6063 114.389 23.7763 114.389 20.9863C114.389 18.2263 115.409 16.0363 117.959 16.0363C120.479 16.0363 121.499 18.0763 121.499 20.9863C121.499 23.8963 120.179 25.6063 118.109 25.6063Z" fill="#727272"/>
<path d="M133.778 28.9963C137.618 28.9963 140.258 27.1363 140.258 24.0463C140.258 20.4463 137.408 19.7263 134.828 19.1863C132.638 18.7363 130.598 18.6163 130.598 17.2963C130.598 16.1863 131.648 15.5863 133.238 15.5863C134.978 15.5863 136.028 16.1863 136.208 17.8363H139.898C139.598 14.7463 137.348 12.7363 133.298 12.7363C129.788 12.7363 127.028 14.3263 127.028 17.6563C127.028 21.0163 129.728 21.7663 132.488 22.3063C134.588 22.7263 136.538 22.8763 136.538 24.3463C136.538 25.4263 135.518 26.1163 133.718 26.1163C131.888 26.1163 130.628 25.3363 130.358 23.5663H126.578C126.818 26.8363 129.308 28.9963 133.778 28.9963Z" fill="#727272"/>
<path d="M155.749 28.5463V13.1562H151.669V22.0363C151.669 24.0763 150.499 25.5163 148.579 25.5163C146.839 25.5163 146.029 24.5262 146.029 22.7262V13.1562H141.979V23.4163C141.979 26.7762 143.899 28.9662 147.319 28.9662C149.479 28.9662 150.679 28.1562 151.729 26.7463H151.819V28.5463H155.749Z" fill="#727272"/>
<path d="M158.388 28.5463H162.468V19.6063C162.468 17.5663 163.578 16.2463 165.228 16.2463C166.728 16.2463 167.598 17.1463 167.598 18.8863V28.5463H171.678V19.6063C171.678 17.5663 172.728 16.2463 174.438 16.2463C175.938 16.2463 176.808 17.1463 176.808 18.8863V28.5463H180.888V18.1963C180.888 14.8363 179.058 12.7363 175.818 12.7363C173.868 12.7363 172.248 13.7563 171.198 15.4363H171.138C170.388 13.8163 168.828 12.7363 166.878 12.7363C164.748 12.7363 163.248 13.8163 162.408 15.2263H162.318V13.1563H158.388V28.5463Z" fill="#727272"/>
<path d="M0.684082 28.5467H4.76408V7.09668H0.684082V28.5467Z" fill="#727272"/>
<path d="M14.7402 28.9963C19.5102 28.9963 22.7802 25.4563 22.7802 20.8663C22.7802 16.2763 19.5102 12.7363 14.7402 12.7363C9.9702 12.7363 6.7002 16.2763 6.7002 20.8663C6.7002 25.4563 9.9702 28.9963 14.7402 28.9963ZM14.7402 25.8763C12.2202 25.8763 10.8402 23.8663 10.8402 20.8663C10.8402 17.8663 12.2202 15.8263 14.7402 15.8263C17.2302 15.8263 18.6402 17.8663 18.6402 20.8663C18.6402 23.8663 17.2302 25.8763 14.7402 25.8763Z" fill="#727272"/>
<path d="M31.4568 33.7963C33.7368 33.7963 35.7168 33.2563 37.0068 32.0563C38.1468 31.0063 38.8368 29.5363 38.8368 27.3763V13.1563H34.9068V14.7763H34.8468C33.9168 13.4863 32.5068 12.7363 30.5868 12.7363C26.6868 12.7363 23.9268 15.6763 23.9268 20.2663C23.9268 24.9163 27.2868 27.6163 30.7068 27.6163C32.6568 27.6163 33.8268 26.8363 34.7268 25.8163H34.8168V27.4963C34.8168 29.5963 33.7068 30.7063 31.3968 30.7063C29.5068 30.7063 28.6368 29.9563 28.3068 28.9963H24.2568C24.6768 31.9963 27.2568 33.7963 31.4568 33.7963ZM31.3968 24.3463C29.2968 24.3463 27.9168 22.8163 27.9168 20.2063C27.9168 17.6263 29.2968 16.0063 31.3668 16.0063C33.8268 16.0063 35.0268 17.9263 35.0268 20.1763C35.0268 22.4563 33.9768 24.3463 31.3968 24.3463Z" fill="#727272"/>
<path d="M48.7539 28.9963C53.5239 28.9963 56.7939 25.4563 56.7939 20.8663C56.7939 16.2763 53.5239 12.7363 48.7539 12.7363C43.9839 12.7363 40.7139 16.2763 40.7139 20.8663C40.7139 25.4563 43.9839 28.9963 48.7539 28.9963ZM48.7539 25.8763C46.2339 25.8763 44.8539 23.8663 44.8539 20.8663C44.8539 17.8663 46.2339 15.8263 48.7539 15.8263C51.2439 15.8263 52.6539 17.8663 52.6539 20.8663C52.6539 23.8663 51.2439 25.8763 48.7539 25.8763Z" fill="#727272"/>
<path d="M180.704 9.7959C180.704 9.10554 181.263 8.5459 181.954 8.5459H184.454C185.144 8.5459 185.704 9.10554 185.704 9.7959C185.704 10.4862 185.144 11.0459 184.454 11.0459H181.954C181.263 11.0459 180.704 10.4862 180.704 9.7959Z" fill="#727272"/>
</g>
<defs>
<clipPath id="clip0_317_74">
<rect width="186" height="41" fill="white"/>
</clipPath>
</defs>
</svg>
