<svg width="51" height="51" viewBox="0 0 51 51" fill="none" xmlns="http://www.w3.org/2000/svg">
<path d="M12.7419 38.2258L20.8968 20.8968L38.2258 12.7419L30.071 30.071L12.7419 38.2258ZM25.4839 23.1903C24.8756 23.1903 24.2922 23.432 23.8621 23.8621C23.432 24.2922 23.1903 24.8756 23.1903 25.4839C23.1903 26.0922 23.432 26.6755 23.8621 27.1057C24.2922 27.5358 24.8756 27.7774 25.4839 27.7774C26.0922 27.7774 26.6755 27.5358 27.1057 27.1057C27.5358 26.6755 27.7774 26.0922 27.7774 25.4839C27.7774 24.8756 27.5358 24.2922 27.1057 23.8621C26.6755 23.432 26.0922 23.1903 25.4839 23.1903ZM25.4839 0C28.8305 0 32.1443 0.65916 35.2361 1.93984C38.328 3.22053 41.1373 5.09766 43.5037 7.46405C45.8701 9.83045 47.7472 12.6398 49.0279 15.7316C50.3086 18.8235 50.9677 22.1373 50.9677 25.4839C50.9677 32.2426 48.2828 38.7245 43.5037 43.5037C38.7245 48.2828 32.2426 50.9677 25.4839 50.9677C22.1373 50.9677 18.8235 50.3086 15.7316 49.0279C12.6398 47.7472 9.83045 45.8701 7.46405 43.5037C2.6849 38.7245 0 32.2426 0 25.4839C0 18.7251 2.6849 12.2432 7.46405 7.46405C12.2432 2.6849 18.7251 0 25.4839 0ZM25.4839 5.09677C20.0769 5.09677 14.8913 7.24469 11.068 11.068C7.24469 14.8913 5.09677 20.0769 5.09677 25.4839C5.09677 30.8909 7.24469 36.0764 11.068 39.8997C14.8913 43.723 20.0769 45.871 25.4839 45.871C30.8909 45.871 36.0764 43.723 39.8997 39.8997C43.723 36.0764 45.871 30.8909 45.871 25.4839C45.871 20.0769 43.723 14.8913 39.8997 11.068C36.0764 7.24469 30.8909 5.09677 25.4839 5.09677Z" fill="#00C4F3"/>
</svg>
