<svg width="153" height="36" viewBox="0 0 153 36" fill="none" xmlns="http://www.w3.org/2000/svg">
<g clip-path="url(#clip0_317_108)">
<path fill-rule="evenodd" clip-rule="evenodd" d="M9.06665 2.25V36H0V2.25H9.06665Z" fill="#727272"/>
<path fill-rule="evenodd" clip-rule="evenodd" d="M13.6 2.25H32.8667C39.1259 2.25 44.2 7.2868 44.2 13.5C44.2 19.7132 39.1259 24.75 32.8667 24.75H22.6666V36H13.6V2.25ZM22.6666 15.75H32.8667C34.1185 15.75 35.1333 14.7426 35.1333 13.5C35.1333 12.2574 34.1185 11.25 32.8667 11.25H22.6666V15.75Z" fill="#727272"/>
<path fill-rule="evenodd" clip-rule="evenodd" d="M78.2 2.25V19.6875C78.2 23.7261 81.4981 27 85.5667 27C89.6352 27 92.9335 23.7261 92.9335 19.6875V2.25H102V19.6875C102 28.6967 94.6427 36 85.5667 36C76.4908 36 69.1334 28.6967 69.1334 19.6875V2.25H78.2Z" fill="#727272"/>
<path fill-rule="evenodd" clip-rule="evenodd" d="M47.6 18C47.6 9.3015 54.7038 2.25 63.4667 2.25H65.7333V11.25H63.4667C59.7111 11.25 56.6667 14.2721 56.6667 18V19.125C56.6667 28.4448 49.0555 36 39.6667 36H38.5334V27H39.6667C44.0482 27 47.6 23.4742 47.6 19.125V18Z" fill="#727272"/>
<path d="M153 3.375C153 5.23896 151.478 6.75 149.6 6.75C147.722 6.75 146.2 5.23896 146.2 3.375C146.2 1.51104 147.722 0 149.6 0C151.478 0 153 1.51104 153 3.375Z" fill="#727272"/>
<path d="M111.735 35.9998L116.062 18.0161L119.278 28.8352C121.196 35.288 130.404 35.288 132.322 28.8352L135.538 18.0161L139.865 35.9998H149.186L142.383 7.72134C140.765 0.996494 131.219 0.747501 129.247 7.37882L125.8 18.9748L122.353 7.37883C120.382 0.74754 110.834 0.996459 109.217 7.72133L102.414 35.9998H111.735Z" fill="#727272"/>
</g>
<defs>
<clipPath id="clip0_317_108">
<rect width="153" height="36" fill="white"/>
</clipPath>
</defs>
</svg>
