<svg width="52" height="46" viewBox="0 0 52 46" fill="none" xmlns="http://www.w3.org/2000/svg">
<path d="M7.8 5.11111C7.11044 5.11111 6.44912 5.38036 5.96152 5.85962C5.47393 6.33888 5.2 6.98889 5.2 7.66667V30.6667C5.2 31.3444 5.47393 31.9945 5.96152 32.4737C6.44912 32.953 7.11044 33.2222 7.8 33.2222H44.2C44.8896 33.2222 45.5509 32.953 46.0385 32.4737C46.5261 31.9945 46.8 31.3444 46.8 30.6667V7.66667C46.8 6.98889 46.5261 6.33888 46.0385 5.85962C45.5509 5.38036 44.8896 5.11111 44.2 5.11111H7.8ZM7.8 0H44.2C46.2687 0 48.2526 0.807736 49.7154 2.24551C51.1782 3.68329 52 5.63334 52 7.66667V30.6667C52 32.7 51.1782 34.65 49.7154 36.0878C48.2526 37.5256 46.2687 38.3333 44.2 38.3333H7.8C5.73131 38.3333 3.74735 37.5256 2.28457 36.0878C0.821783 34.65 0 32.7 0 30.6667L0 7.66667C0 5.63334 0.821783 3.68329 2.28457 2.24551C3.74735 0.807736 5.73131 0 7.8 0ZM18.2 40.8889H33.8C34.4896 40.8889 35.1509 41.1581 35.6385 41.6374C36.1261 42.1167 36.4 42.7667 36.4 43.4444C36.4 44.1222 36.1261 44.7722 35.6385 45.2515C35.1509 45.7308 34.4896 46 33.8 46H18.2C17.5104 46 16.8491 45.7308 16.3615 45.2515C15.8739 44.7722 15.6 44.1222 15.6 43.4444C15.6 42.7667 15.8739 42.1167 16.3615 41.6374C16.8491 41.1581 17.5104 40.8889 18.2 40.8889Z" fill="#00C4F3"/>
</svg>
