<svg width="159" height="36" viewBox="0 0 159 36" fill="none" xmlns="http://www.w3.org/2000/svg">
<g clip-path="url(#clip0_317_115)">
<path d="M154.815 6.89774L158.607 10.6801C158.74 10.7846 158.838 10.9256 158.889 11.0854C158.966 12.0163 158.255 12.0673 157.528 12.1193C157.214 12.1418 156.897 12.1646 156.64 12.2589C155.364 12.6008 154.226 13.323 153.38 14.3274C152.534 15.3318 152.02 16.5698 151.909 17.8734C151.827 18.0239 151.703 18.1479 151.552 18.2302C151.401 18.3127 151.229 18.3499 151.056 18.3378C150.856 18.3202 150.669 18.2336 150.528 18.0929L149.283 16.8514C149.292 16.9364 149.292 17.0205 149.292 17.0882V17.9071C149.292 17.9589 149.294 18.0087 149.287 18.0585C149.279 18.1143 149.26 18.1699 149.216 18.2279V18.3039C149.216 18.3427 149.22 18.3788 149.225 18.4154C149.234 18.4904 149.244 18.5676 149.216 18.6754C149.188 18.776 149.186 18.8932 149.182 18.9979C149.181 19.0601 149.179 19.1179 149.173 19.1651C149.164 19.2305 149.164 19.3003 149.158 19.3701C149.153 19.4354 149.142 19.5007 149.113 19.5619C149.073 19.6475 149.059 19.7294 149.056 19.8125C149.053 19.8523 149.053 19.8923 149.053 19.9334L149.002 20.1951L147.068 29.3302L146.914 30.014L146.854 31.0103L146.002 35.3246L145.866 36H76.8877L76.5552 35.6707L76.4955 35.9578H69.1145L65.0063 31.8631L65.3983 30.014H63.08L61.6397 28.5703C59.8521 29.8597 57.6883 30.5357 55.4774 30.4953C53.1007 30.5879 50.7838 29.7439 49.0339 28.1482L46.7922 25.9109L46.3064 28.1566C46.2468 28.4774 46.1701 28.7815 46.0848 29.0769L46.0081 29.3556L45.8803 29.7607C45.8698 29.7959 45.8555 29.83 45.8377 29.8621C45.7108 30.2343 45.5599 30.5981 45.386 30.9512C45.3905 30.9649 45.3905 30.9797 45.386 30.9934C45.3636 31.0402 45.338 31.0853 45.3092 31.1285C45.1805 31.3807 45.0383 31.6259 44.8831 31.8631C44.8543 31.9062 44.8286 31.9513 44.8064 31.9981L44.7126 32.0994C44.5043 32.3954 44.2765 32.6774 44.0307 32.9437C43.9633 33.0105 43.8959 33.0732 43.8274 33.1348C43.7574 33.1978 43.6864 33.2596 43.6131 33.3236L43.4256 33.5009C43.3074 33.5982 43.1865 33.692 43.063 33.7825C42.9612 33.8571 42.8576 33.9293 42.7523 33.999C40.9957 35.03 38.9695 35.5207 36.931 35.409C34.1183 35.409 31.8681 34.5984 30.4448 33.1801L26.4389 29.1866C24.8388 30.0836 23.027 30.5439 21.1886 30.5206C18.8191 30.5933 16.5162 29.7378 14.7792 28.1398L12.5377 25.9025L11.8132 29.3556L11.6682 30.0394H4.12524L0 25.9193L0.213079 24.9231L4.74742 3.35176L4.88376 2.67635H12.4523L12.6484 2.86212V2.67635H63.6426L63.8301 2.86212V2.67635H71.2112L75.3364 6.79642L75.1319 7.78422L74.9103 8.86491H77.0325L77.3649 9.19422C78.2988 8.6521 79.3594 8.36104 80.4418 8.34992C81.2377 8.33435 82.0281 8.4841 82.762 8.78947C83.4961 9.09486 84.1573 9.549 84.7034 10.1228L84.5925 9.99621L86.5955 11.9972C87.8143 9.72612 90.5502 8.34992 94.2661 8.34992C97.1472 8.34992 99.2696 9.07596 100.556 10.393L102.005 11.8368L102.491 9.51498L102.636 8.83956H110.025L112.14 10.9418L112.438 9.52344L112.583 8.84801H127.124L127.515 9.23643C128.5 8.66075 129.628 8.36836 130.772 8.39212C131.459 8.36553 132.144 8.49028 132.779 8.75742C133.412 9.02457 133.978 9.4275 134.436 9.93717C134.412 9.91062 134.39 9.88407 134.367 9.85797C134.326 9.80955 134.285 9.7623 134.241 9.71856L134.982 10.4521C135.627 9.79038 136.403 9.26631 137.26 8.91212C138.117 8.55789 139.039 8.38089 139.967 8.39212C140.461 8.36208 140.953 8.40366 141.431 8.5143L140.624 7.70826C140.514 7.59175 140.44 7.44679 140.41 7.29019C140.38 7.13359 140.395 6.97168 140.453 6.82332C140.512 6.67491 140.612 6.54609 140.742 6.45169C140.872 6.35729 141.026 6.30116 141.187 6.28988H141.834C142.009 6.27339 142.182 6.24803 142.354 6.21387C143.26 6.02527 144.112 5.63962 144.849 5.08473C145.587 4.52991 146.19 3.81976 146.616 3.00563C146.653 2.94266 146.687 2.87789 146.718 2.81146V2.76925C147.011 2.14393 147.189 1.47223 147.247 0.785174C147.261 0.571683 147.358 0.371795 147.517 0.226067C147.675 0.0802871 147.883 -0.000512856 148.099 2.44969e-06H148.167C148.296 0.0121637 148.422 0.0534912 148.532 0.12079C148.643 0.18814 148.737 0.279659 148.807 0.388389C149.42 0.979389 152.829 4.41555 152.829 4.41555C153.113 4.71814 153.092 5.11096 153.071 5.50841C153.057 5.75417 153.043 6.00172 153.102 6.23077C153.257 6.25834 153.414 6.27921 153.57 6.29333C153.721 6.30678 153.872 6.31409 154.023 6.31518C154.199 6.31884 154.371 6.37686 154.513 6.48126C154.654 6.58561 154.761 6.73119 154.815 6.89774Z" fill="#727272"/>
<path d="M39.0105 9.67588H44.3972L41.38 23.8512C40.826 26.536 39.7691 28.0727 38.1667 29.1618C36.546 30.0934 34.685 30.5337 32.8143 30.4282C29.2516 30.4282 25.8337 28.9507 25.4928 25.3625H30.9135C31.084 26.2068 31.8682 26.688 33.0614 26.688C34.6723 26.688 35.4138 25.7256 35.7462 24.2143L36.07 22.6524H35.9507C35.4751 23.1703 34.8982 23.587 34.255 23.8773C33.6117 24.1675 32.9157 24.3253 32.2091 24.3409C29.0726 24.3409 26.5837 21.8672 26.6349 18.2452C26.7031 14.0239 29.4816 9.2284 34.1439 9.2284C35.0274 9.16945 35.9094 9.36232 36.6858 9.78424C37.4621 10.2061 38.1002 10.8394 38.5247 11.6093H38.6185L39.0105 9.67588ZM34.3825 20.3813C36.4536 20.3813 37.6042 18.0174 37.6383 15.9826C37.6383 14.6234 37.1014 13.2303 35.5161 13.2303C33.3511 13.2303 32.2517 15.6196 32.2176 17.6711C32.2176 19.0558 32.7546 20.3813 34.3398 20.3813M94.8549 20.8372C94.8549 21.7406 94.0699 22.1036 93.0386 22.1036C91.3342 22.1036 90.7633 21.2593 90.7548 20.0774H85.3937C85.3 24.4845 89.2718 25.5736 92.8006 25.5736C97.3089 25.5736 100.233 23.6402 100.293 19.7819C100.293 16.7002 97.6415 15.7631 95.0339 15.1636C93.0305 14.7078 92.1528 14.3785 92.161 13.6271C92.1701 12.8757 93.065 12.5717 93.9427 12.5717C95.042 12.5717 95.7916 12.9601 95.8688 13.9564H101.077C101.017 10.2753 97.6669 9.19465 94.2579 9.19465C90.1156 9.19465 86.8853 11.0604 86.8341 14.5895C86.8341 17.3672 88.7263 18.3888 91.5813 19.1149C93.4139 19.5961 94.8712 19.7481 94.8549 20.8372ZM134.683 11.9639H134.589C134.358 11.1324 133.845 10.4046 133.138 9.90088C132.432 9.39724 131.572 9.14803 130.703 9.19465C128.385 9.19465 126.97 10.3344 125.632 12.0567H125.538L126.033 9.67588H120.611L117.364 25.0586H123.032L124.737 16.7593C125.128 14.9526 126.058 13.6862 127.464 13.6862C128.871 13.6862 129.058 14.8006 128.768 16.1599L126.893 25.0586H132.561L134.266 16.7593C134.658 14.8344 135.587 13.6862 136.993 13.6862C138.399 13.6862 138.587 14.7415 138.297 16.1599L136.422 25.0586H142.09L144.119 15.915C144.971 12.0567 143.667 9.16081 139.925 9.16081C138.884 9.15658 137.859 9.41092 136.944 9.90061C136.028 10.3903 135.251 11.0997 134.683 11.9639ZM1.03979 25.0586H6.89522L11.421 3.4873H5.57413L1.03979 25.0586ZM18.6657 9.21994C22.6204 9.21994 26.3963 11.3644 26.3366 16.219C26.2854 21.5295 22.6375 25.5061 17.0634 25.5061C13.2279 25.5061 9.39256 23.3954 9.4607 18.5661C9.55446 13.3823 13.1512 9.21994 18.6657 9.21994ZM17.2254 21.7406C19.7227 21.7406 20.6346 18.1524 20.6346 16.0417C20.6346 14.5305 20.1659 13.053 18.5208 13.053C16.0491 13.053 15.2053 16.8522 15.2053 18.811C15.2053 20.3813 15.6485 21.7406 17.2594 21.7406M13.3728 3.4873L12.5205 7.80156H61.6907L62.5431 3.4873H13.3728ZM52.9204 9.21994C56.8751 9.21994 60.6509 11.3644 60.5913 16.219C60.5401 21.5295 56.8837 25.5061 51.3095 25.5061C47.4741 25.5061 43.6386 23.3954 43.7154 18.5661C43.8347 13.3823 47.4314 9.21994 52.9204 9.21994ZM51.5056 21.7406C54.0029 21.7406 54.9148 18.1524 54.9148 16.0417C54.9148 14.5305 54.4375 13.053 52.7926 13.053C50.3293 13.053 49.477 16.8522 49.477 18.811C49.477 20.3813 49.9202 21.7406 51.5396 21.7406M64.5546 3.4873L63.7022 7.80156H69.3616L70.214 3.4873H64.5546ZM60.0202 25.0586H65.6881L68.9354 9.67588H63.2334L60.0202 25.0586ZM78.1064 25.5736C77.2043 25.637 76.3022 25.4503 75.5012 25.0342C74.7003 24.6181 74.0322 23.9892 73.5721 23.2181H73.4783L71.7737 31.0023H66.0375L70.6401 9.67588H76.0267L75.6006 11.7274C76.1631 10.9696 76.8918 10.348 77.7318 9.90925C78.5717 9.47059 79.5012 9.22624 80.4503 9.19465C83.8595 9.19465 85.8625 12.0905 85.8029 15.856C85.7261 20.5923 83.2459 25.5736 78.0723 25.5736H78.1064ZM77.8848 13.5511C75.6944 13.5511 74.3477 16.3288 74.3136 18.4648C74.3136 19.9507 74.842 21.6055 76.6404 21.6055C78.9843 21.6055 79.9474 18.5323 79.9729 16.4807C79.9729 15.0877 79.5639 13.5511 77.8848 13.5511ZM110.657 22.6355H110.75L110.256 25.0755H115.642L118.89 9.69271H113.231L111.424 18.2874C111.057 20.0689 109.949 21.0061 108.552 21.0061C107.153 21.0061 106.846 19.7058 107.128 18.3466L108.96 9.69271H103.301L101.298 19.1909C100.445 23.3278 102.389 25.5567 105.645 25.5567C106.667 25.5468 107.669 25.2701 108.549 24.7542C109.428 24.2383 110.156 23.5017 110.657 22.6186V22.6355ZM141.058 31.0783L141.911 26.764H74.6971L73.8448 31.0783H141.058Z" fill="white"/>
<path d="M147.152 13.8972C147.097 13.893 147.042 13.8778 146.992 13.8525C146.941 13.8273 146.897 13.7925 146.861 13.7501C146.824 13.7077 146.797 13.6586 146.78 13.6056C146.762 13.5526 146.756 13.4968 146.761 13.4413C146.832 12.6894 146.742 11.9311 146.496 11.2161C146.251 10.5012 145.856 9.84551 145.336 9.29237C144.817 8.7392 144.186 8.30088 143.484 8.00613C142.782 7.71139 142.025 7.56686 141.263 7.58204C141.15 7.58204 141.042 7.53757 140.962 7.4584C140.882 7.37923 140.837 7.27185 140.837 7.15989C140.837 7.04793 140.882 6.94057 140.962 6.86141C141.042 6.78224 141.15 6.73776 141.263 6.73776C141.467 6.75084 141.673 6.75084 141.877 6.73776C143.391 6.578 144.801 5.90049 145.865 4.82181C146.93 3.74313 147.58 2.33076 147.707 0.827815C147.716 0.72181 147.764 0.622931 147.843 0.550928C147.922 0.478927 148.025 0.439114 148.133 0.439455C148.189 0.443717 148.243 0.458916 148.293 0.484171C148.343 0.509426 148.388 0.544241 148.424 0.586613C148.462 0.628987 148.489 0.678079 148.506 0.731067C148.523 0.784055 148.53 0.839888 148.525 0.895359C148.454 1.64656 148.544 2.40413 148.789 3.11853C149.034 3.83293 149.428 4.48806 149.946 5.04111C150.465 5.59415 151.095 6.03265 151.795 6.32793C152.496 6.62321 153.252 6.76862 154.014 6.75464C154.126 6.75464 154.235 6.79913 154.315 6.87829C154.395 6.95746 154.44 7.06483 154.44 7.17679C154.44 7.28875 154.395 7.39613 154.315 7.47529C154.235 7.55445 154.126 7.59892 154.014 7.59892C152.395 7.62542 150.842 8.2433 149.654 9.33404C148.467 10.4248 147.727 11.9115 147.579 13.5089C147.57 13.6149 147.522 13.7138 147.443 13.7858C147.364 13.8578 147.26 13.8976 147.152 13.8972Z" fill="white"/>
</g>
<defs>
<clipPath id="clip0_317_115">
<rect width="159" height="36" fill="white"/>
</clipPath>
</defs>
</svg>
