<svg width="198" height="36" viewBox="0 0 198 36" fill="none" xmlns="http://www.w3.org/2000/svg">
<g clip-path="url(#clip0_317_87)">
<path d="M111.13 26.5716H115.365V10.7419H111.13V26.5716ZM111.13 8.27336H115.365V4.50879H111.13V8.27336Z" fill="#727272"/>
<path d="M118.094 31.7553H122.329V24.7816H122.391C123.294 26.1393 124.758 27.0342 127 27.0342C131.11 27.0342 133.913 23.7942 133.913 18.6719C133.913 13.7347 131.204 10.3096 126.969 10.3096C124.789 10.3096 123.294 11.3279 122.267 12.7164H122.173V10.7416H118.094V31.7553ZM126.097 23.5473C123.575 23.5473 122.236 21.6651 122.236 18.7953C122.236 15.9564 123.294 13.7039 125.942 13.7039C128.557 13.7039 129.615 15.8022 129.615 18.7953C129.615 21.7884 128.246 23.5473 126.097 23.5473Z" fill="#727272"/>
<path d="M142.361 27.0342C146.347 27.0342 149.088 25.121 149.088 21.9427C149.088 18.2399 146.129 17.4993 143.451 16.9439C141.178 16.4811 139.06 16.3576 139.06 14.9999C139.06 13.8582 140.15 13.2411 141.801 13.2411C143.607 13.2411 144.697 13.8582 144.883 15.5553H148.713C148.403 12.3771 146.067 10.3096 141.863 10.3096C138.219 10.3096 135.355 11.9451 135.355 15.3702C135.355 18.8262 138.158 19.5976 141.022 20.1531C143.202 20.5851 145.226 20.7393 145.226 22.2513C145.226 23.3622 144.168 24.0719 142.299 24.0719C140.399 24.0719 139.091 23.2696 138.812 21.449H134.888C135.137 24.8124 137.722 27.0342 142.361 27.0342Z" fill="#727272"/>
<path d="M165.167 26.571V10.7412H160.931V19.875C160.931 21.9732 159.717 23.4543 157.724 23.4543C155.918 23.4543 155.078 22.4361 155.078 20.5847V10.7412H150.873V21.2943C150.873 24.7503 152.866 27.003 156.416 27.003C158.659 27.003 159.904 26.1698 160.994 24.7196H161.088V26.571H165.167Z" fill="#727272"/>
<path d="M167.906 26.5713H172.141V17.3759C172.141 15.2776 173.294 13.9199 175.007 13.9199C176.563 13.9199 177.466 14.8456 177.466 16.6353V26.5713H181.701V17.3759C181.701 15.2776 182.791 13.9199 184.566 13.9199C186.124 13.9199 187.026 14.8456 187.026 16.6353V26.5713H191.262V15.9256C191.262 12.4696 189.362 10.3096 185.998 10.3096C183.975 10.3096 182.293 11.3587 181.203 13.0867H181.141C180.363 11.4204 178.743 10.3096 176.719 10.3096C174.508 10.3096 172.951 11.4204 172.079 12.8707H171.986V10.7416H167.906V26.5713Z" fill="#727272"/>
<path d="M0.748535 26.5716H4.9836V4.50879H0.748535V26.5716Z" fill="#727272"/>
<path d="M15.339 27.0342C20.2903 27.0342 23.6846 23.3931 23.6846 18.6719C23.6846 13.9507 20.2903 10.3096 15.339 10.3096C10.3877 10.3096 6.99341 13.9507 6.99341 18.6719C6.99341 23.3931 10.3877 27.0342 15.339 27.0342ZM15.339 23.8251C12.7233 23.8251 11.2908 21.7576 11.2908 18.6719C11.2908 15.5862 12.7233 13.4879 15.339 13.4879C17.9237 13.4879 19.3872 15.5862 19.3872 18.6719C19.3872 21.7576 17.9237 23.8251 15.339 23.8251Z" fill="#727272"/>
<path d="M32.6909 31.9713C35.0576 31.9713 37.1129 31.4159 38.4518 30.1816C39.6352 29.1016 40.3515 27.5896 40.3515 25.3679V10.7416H36.2721V12.4079H36.2098C35.2444 11.0811 33.7808 10.3096 31.7879 10.3096C27.7397 10.3096 24.8748 13.3336 24.8748 18.0547C24.8748 22.8376 28.3625 25.6147 31.9125 25.6147C33.9365 25.6147 35.151 24.8124 36.0852 23.7633H36.1786V25.4913C36.1786 27.6513 35.0264 28.793 32.6286 28.793C30.6668 28.793 29.7637 28.0216 29.4212 27.0342H25.2173C25.6532 30.1199 28.3313 31.9713 32.6909 31.9713ZM32.6286 22.2513C30.4488 22.2513 29.0164 20.6776 29.0164 17.993C29.0164 15.3393 30.4488 13.673 32.5975 13.673C35.151 13.673 36.3966 15.6479 36.3966 17.9622C36.3966 20.3073 35.3067 22.2513 32.6286 22.2513Z" fill="#727272"/>
<path d="M50.6454 27.0342C55.5967 27.0342 58.991 23.3931 58.991 18.6719C58.991 13.9507 55.5967 10.3096 50.6454 10.3096C45.6941 10.3096 42.2998 13.9507 42.2998 18.6719C42.2998 23.3931 45.6941 27.0342 50.6454 27.0342ZM50.6454 23.8251C48.0296 23.8251 46.5972 21.7576 46.5972 18.6719C46.5972 15.5862 48.0296 13.4879 50.6454 13.4879C53.23 13.4879 54.6937 15.5862 54.6937 18.6719C54.6937 21.7576 53.23 23.8251 50.6454 23.8251Z" fill="#727272"/>
<path d="M192.8 8.14313C192.8 7.43305 193.381 6.85742 194.098 6.85742H196.693C197.41 6.85742 197.991 7.43305 197.991 8.14313C197.991 8.85322 197.41 9.42886 196.693 9.42886H194.098C193.381 9.42886 192.8 8.85322 192.8 8.14313Z" fill="#727272"/>
<path fill-rule="evenodd" clip-rule="evenodd" d="M84.6747 0C94.7066 0 102.84 8.05888 102.84 18C102.84 27.9411 94.7066 36 84.6747 36C74.6423 36 66.5095 27.9411 66.5095 18C66.5095 8.05888 74.6423 0 84.6747 0ZM84.0181 1.34693C81.9457 1.63592 79.9724 3.28597 78.4407 6.04566C77.9963 6.84615 77.5954 7.73051 77.2461 8.6854C79.3289 8.16675 81.6169 7.86098 84.0181 7.81368V1.34693ZM75.7108 9.11772C76.1453 7.76662 76.6767 6.52356 77.2901 5.41858C78.0494 4.05053 78.9506 2.86915 79.9659 1.96179C74.4447 3.55071 70.0928 7.86311 68.4893 13.3341C69.405 12.328 70.5971 11.435 71.9778 10.6826C73.0929 10.0749 74.3473 9.54819 75.7108 9.11772ZM75.2746 10.639C74.7511 12.7029 74.4426 14.9701 74.3948 17.3494H67.8687C68.1604 15.2959 69.8256 13.3405 72.6106 11.8228C73.4184 11.3825 74.3109 10.9852 75.2746 10.639ZM75.7083 17.3494C75.7625 14.7528 76.1398 12.3151 76.7639 10.1612C78.9376 9.5427 81.3977 9.16884 84.0181 9.11511V11.9257C83.0405 14.4056 81.0467 16.3811 78.544 17.3494H75.7083ZM74.3948 18.6506H67.8687C68.1604 20.7041 69.8256 22.6594 72.6106 24.1772C73.4184 24.6175 74.3109 25.0148 75.2746 25.361C74.7511 23.2971 74.4426 21.0299 74.3948 18.6506ZM76.7639 25.8388C76.1398 23.6849 75.7625 21.2472 75.7083 18.6506H78.544C81.0467 19.6189 83.0405 21.5944 84.0181 24.0743V26.8849C81.3977 26.8312 78.9376 26.4573 76.7639 25.8388ZM75.7108 26.8823C74.3473 26.4518 73.0929 25.9251 71.9778 25.3174C70.5971 24.565 69.405 23.672 68.4893 22.6659C70.0928 28.1369 74.4447 32.4493 79.9659 34.0382C78.9506 33.1308 78.0494 31.9495 77.2901 30.5814C76.6767 29.4764 76.1453 28.2334 75.7108 26.8823ZM84.0181 34.6531C81.9457 34.3641 79.9724 32.714 78.4407 29.9543C77.9963 29.1539 77.5954 28.2694 77.2461 27.3146C79.3289 27.8332 81.6169 28.139 84.0181 28.1863V34.6531ZM89.3833 34.0382C90.3987 33.1308 91.2998 31.9495 92.0591 30.5814C92.6721 29.4764 93.2044 28.2334 93.6385 26.8823C95.0018 26.4518 96.2561 25.9251 97.3715 25.3174C98.752 24.565 99.9445 23.672 100.86 22.6659C99.2561 28.1369 94.9046 32.4493 89.3833 34.0382ZM92.1036 27.3146C91.7539 28.2694 91.3524 29.1539 90.9083 29.9543C89.3768 32.714 87.4035 34.3641 85.3312 34.6531V28.1863C87.7323 28.139 90.0203 27.8332 92.1036 27.3146ZM94.0745 25.361C95.0381 25.0148 95.931 24.6175 96.7384 24.1772C99.524 22.6595 101.189 20.7041 101.48 18.6506H94.9546C94.9064 21.0299 94.5976 23.2971 94.0745 25.361ZM93.6412 18.6506C93.5868 21.2472 93.2098 23.6849 92.5849 25.8388C90.4117 26.4573 87.9516 26.8312 85.3312 26.8849V24.0763C86.3084 21.5956 88.3027 19.6192 90.806 18.6506H93.6412ZM94.9546 17.3494H101.48C101.189 15.2959 99.524 13.3405 96.7384 11.8228C95.931 11.3825 95.0381 10.9852 94.0745 10.639C94.5976 12.7029 94.9064 14.9701 94.9546 17.3494ZM92.5849 10.1612C93.2098 12.3151 93.5868 14.7528 93.6412 17.3494H90.8061C88.3027 16.3808 86.3084 14.4044 85.3312 11.9236V9.11511C87.9516 9.16884 90.4117 9.5427 92.5849 10.1612ZM93.6385 9.11772C95.0018 9.54819 96.2561 10.0749 97.3715 10.6826C98.752 11.435 99.9445 12.328 100.86 13.3341C99.2561 7.86311 94.9046 3.55071 89.3833 1.96179C90.3987 2.86915 91.2998 4.05053 92.0591 5.41858C92.6721 6.52356 93.2044 7.76662 93.6385 9.11772ZM85.3312 1.34693C87.4035 1.63592 89.3768 3.28597 90.9083 6.04566C91.3524 6.84616 91.7539 7.73051 92.1036 8.6854C90.0203 8.16675 87.7323 7.86098 85.3312 7.81368V1.34693Z" fill="#727272"/>
</g>
<defs>
<clipPath id="clip0_317_87">
<rect width="198" height="36" fill="white"/>
</clipPath>
</defs>
</svg>
