<svg width="147" height="38" viewBox="0 0 147 38" fill="none" xmlns="http://www.w3.org/2000/svg">
<path d="M27.2446 16.0312C30.0746 16.0312 30.7113 17.2644 30.7113 18.8025C30.7113 20.4329 29.9411 21.601 27.2563 21.601C24.5887 21.601 23.8176 20.5008 23.8176 18.8025C23.8176 17.1314 24.6581 16.0312 27.2446 16.0312Z" fill="#727272"/>
<path d="M56.8196 16.0312C59.6496 16.0312 60.2862 17.2644 60.2862 18.8025C60.2862 20.4329 59.5152 21.601 56.8313 21.601C54.1646 21.601 53.3926 20.5008 53.3926 18.8025C53.3926 17.1314 54.2331 16.0312 56.8196 16.0312Z" fill="#727272"/>
<path fill-rule="evenodd" clip-rule="evenodd" d="M2.18854 34.8334V2.75684H145.201V34.8334H2.18854ZM70.3479 33.0238H143.397V4.56636H70.3479V33.0238ZM27.2581 24.3318C32.2823 24.3318 34.3944 22.1576 34.3944 18.7621C34.3944 15.3113 32.0153 13.2602 27.2581 13.2602C22.574 13.2602 20.1083 15.4877 20.1083 18.7621C20.1083 22.4571 22.6948 24.3318 27.2581 24.3318ZM9.79037 13.5045V24.1689H19.9307V21.3289H13.4591V13.5045H9.79037ZM45.7431 24.1689L45.6484 23.1357C44.4211 24.0144 42.9273 24.4373 41.4233 24.3318C39.1624 24.3318 37.2794 23.6523 36.2233 22.2807C35.5267 21.2793 35.175 20.0772 35.2214 18.8571C35.1818 17.6625 35.5457 16.4896 36.254 15.5285C37.3227 14.1976 39.2598 13.3145 42.1439 13.3145C45.4618 13.3145 47.4115 14.3333 48.2503 16.0451C48.4303 16.4482 48.536 16.8807 48.5623 17.3217H45.0523C44.9639 17.0537 44.7993 16.8176 44.5789 16.6422C43.8797 16.1772 43.0447 15.9621 42.2088 16.0315C41.7185 15.9719 41.221 16.0173 40.7496 16.1649C40.2781 16.3124 39.8431 16.5587 39.4735 16.8874C39.0538 17.4637 38.8568 18.1733 38.9189 18.8842C38.8702 19.5625 39.0514 20.2375 39.433 20.7996C39.8059 21.1482 40.2492 21.4122 40.7328 21.574C41.2164 21.7357 41.729 21.7913 42.2359 21.7369C43.2426 21.8191 44.2421 21.5076 45.0253 20.8675C45.1935 20.6565 45.3094 20.4084 45.3635 20.1436H41.5866V17.8519H48.6543V24.1689H45.7431ZM56.8331 24.3318C61.8563 24.3318 63.9693 22.1576 63.9693 18.7621C63.9693 15.3113 61.5866 13.2602 56.8331 13.2602C52.1489 13.2602 49.6833 15.4877 49.6833 18.7621C49.6833 22.4571 52.2698 24.3318 56.8331 24.3318Z" fill="#727272"/>
<path d="M76.5275 24.1283V13.4639H79.1428V24.1283H76.5275Z" fill="#727272"/>
<path d="M92.573 19.6725C91.9102 20.542 90.7693 20.9392 89.1613 20.9491C88.8222 20.9491 84.3266 20.9356 84.3266 20.9356V24.1285H81.7672V13.464H89.1622C89.7549 13.4012 90.3545 13.4642 90.9208 13.6491C91.4881 13.834 92.0094 14.1366 92.4522 14.5371C93.0365 15.3009 93.3206 16.2532 93.2512 17.2134C93.3107 18.0867 93.0717 18.9542 92.573 19.6725ZM90.4744 16.1955C90.2039 15.7884 89.6204 15.5622 88.6329 15.5622H84.313V18.8085H88.6049C89.661 18.8085 90.2174 18.5913 90.4744 18.1697C90.6268 17.8727 90.6927 17.5382 90.6638 17.2052C90.6864 16.858 90.6214 16.5106 90.4744 16.1955Z" fill="#727272"/>
<path d="M100.793 24.2909C95.9721 24.2909 94.4966 22.4814 94.4966 20.6909H97.2319C97.2319 21.5739 98.4368 22.2398 100.915 22.2398C103.379 22.2398 104.029 21.8046 104.029 21.098C104.029 20.31 103.542 20.0657 101.253 19.8078C100.802 19.7671 99.5749 19.6178 99.1141 19.55C95.8674 19.1826 94.6175 18.2182 94.6175 16.4928C94.6175 14.6724 96.4464 13.3008 100.414 13.3008C104.72 13.3008 106.372 14.999 106.372 16.7651H103.667C103.667 15.8685 102.651 15.3519 100.254 15.3519C97.7893 15.3519 97.2617 15.6912 97.2617 16.3571C97.2617 17.0501 97.8028 17.2673 100.418 17.5794C101.014 17.6617 102.341 17.811 102.706 17.8508C105.469 18.1358 106.715 19.141 106.715 20.9207C106.71 23.0405 104.815 24.2909 100.793 24.2909Z" fill="#727272"/>
<path d="M114.416 24.2776C110.883 24.2776 108.581 22.8779 108.581 19.9347V13.4639H111.166V19.9709C111.166 21.3163 112.264 22.212 114.525 22.212C116.569 22.212 117.788 21.3706 117.788 19.9709V13.4639H120.348V20.1763C120.348 22.8517 118.208 24.2776 114.416 24.2776Z" fill="#727272"/>
<path d="M134.362 24.1283V17.0096L131.045 24.1283H128.527L125.303 17.0096V24.1283H122.869V13.4639H126.167L129.824 21.5877L133.561 13.4639H136.807V24.1283H134.362Z" fill="#727272"/>
</svg>
