<svg width="109" height="78" viewBox="0 0 109 78" fill="none" xmlns="http://www.w3.org/2000/svg">
<g clip-path="url(#clip0_317_164)">
<path d="M45.3584 8.51311C48.8724 4.76606 53.7691 2.44447 59.1826 2.44447C66.3767 2.44447 72.6541 6.54506 75.9984 12.6345C78.9051 11.3054 82.1211 10.5662 85.5032 10.5662C98.4823 10.5662 109.004 21.4161 109.004 34.7992C109.004 48.1824 98.4823 59.0322 85.5032 59.0322C83.9206 59.0322 82.3701 58.8677 80.8762 58.5633C77.9337 63.9287 72.3202 67.5604 65.8844 67.5604C63.1871 67.5604 60.6407 66.9252 58.3696 65.7928C55.3837 72.9712 48.431 78.0019 40.3278 78.0019C32.2245 78.0019 24.6946 72.542 21.9351 64.8891C20.7279 65.1481 19.4773 65.288 18.1965 65.288C8.14666 65.2861 0 56.8732 0 46.4922C0 39.5331 3.6593 33.4645 9.09921 30.2128C7.98067 27.5792 7.3601 24.6735 7.3601 21.6165C7.3601 9.67579 16.8384 0 28.5331 0C35.3896 0.00567163 41.4878 3.34248 45.3584 8.51311Z" fill="#009DDC"/>
<path d="M15.486 40.3473C15.4162 40.5231 15.5105 40.5572 15.535 40.5912C15.7444 40.7349 15.9537 40.8389 16.1688 40.958C17.3005 41.5308 18.3719 41.7028 19.4923 41.7028C21.7747 41.7028 23.1912 40.5439 23.1912 38.6742V38.6364C23.1912 36.9103 21.5917 36.2808 20.0922 35.827L19.8979 35.7646C18.7661 35.4111 17.7891 35.1105 17.7891 34.3959V34.3581C17.7891 33.7474 18.3568 33.2994 19.2452 33.2994C20.228 33.2994 21.3937 33.6151 22.1406 34.0102C22.1406 34.0102 22.3594 34.1482 22.4443 33.9441C22.4896 33.8344 22.8687 32.857 22.9083 32.7473C22.9536 32.632 22.8725 32.5469 22.7989 32.5035C21.9426 32.0025 20.7561 31.6641 19.5301 31.6641H19.2999C17.2119 31.6641 15.7557 32.8702 15.7557 34.602V34.6398C15.7557 36.4623 17.3647 37.054 18.8699 37.4624L19.1132 37.5342C20.2091 37.8594 21.156 38.1354 21.156 38.8746V38.9124C21.156 39.5892 20.5373 40.0902 19.5508 40.0902C19.1679 40.0902 17.9418 40.0845 16.6158 39.2792C16.4555 39.1884 16.3612 39.126 16.2423 39.0542C16.1782 39.0164 16.0122 38.9483 15.9424 39.1544L15.4841 40.3473H15.486Z" fill="white"/>
<path d="M48.7253 40.3473C48.663 40.5231 48.7479 40.5572 48.7705 40.5912C48.9592 40.7349 49.1478 40.8389 49.3402 40.958C50.3588 41.5308 51.3226 41.7028 52.3318 41.7028C54.3859 41.7028 55.661 40.5439 55.661 38.6742V38.6364C55.661 36.9103 54.2218 36.2808 52.8712 35.827L52.6958 35.7646C51.6772 35.4111 50.7982 35.1105 50.7982 34.3959V34.3581C50.7982 33.7474 51.3094 33.2994 52.1073 33.2994C52.9919 33.2994 54.0407 33.6151 54.7141 34.0102C54.7141 34.0102 54.9121 34.1482 54.9876 33.9441C55.0272 33.8344 55.3686 32.857 55.4044 32.7473C55.4441 32.632 55.3724 32.5469 55.3064 32.5035C54.5349 32.0025 53.4673 31.6641 52.3638 31.6641H52.1582C50.2795 31.6641 48.9686 32.8702 48.9686 34.602V34.6398C48.9686 36.4623 50.4172 37.054 51.7715 37.4624L51.9922 37.5342C52.9787 37.8594 53.8313 38.1354 53.8313 38.8746V38.9124C53.8313 39.5892 53.2749 40.0902 52.3865 40.0902C52.0413 40.0902 50.9378 40.0845 49.7438 39.2792C49.6005 39.1884 49.5156 39.126 49.4081 39.0542C49.3723 39.0296 49.1968 38.9597 49.1384 39.1544L48.7253 40.3473Z" fill="white"/>
<path d="M72.4107 34.7229C72.2372 34.1123 71.9731 33.5753 71.6166 33.1273C71.2601 32.6811 70.8093 32.3162 70.2812 32.0553C69.7474 31.7907 69.123 31.6621 68.4157 31.6621C67.7084 31.6621 67.0802 31.7963 66.5464 32.0553C66.0126 32.3143 65.5656 32.6792 65.211 33.1273C64.8545 33.5734 64.5904 34.1123 64.4169 34.7229C64.249 35.3279 64.1622 35.9915 64.1622 36.6928C64.1622 37.3942 64.249 38.0616 64.4169 38.6628C64.5847 39.2734 64.8545 39.8066 65.211 40.2584C65.5675 40.7102 66.0183 41.0657 66.5464 41.319C67.0802 41.5742 67.7084 41.7028 68.4119 41.7028C69.1155 41.7028 69.7436 41.5723 70.2774 41.319C70.8112 41.0638 71.2583 40.7046 71.6185 40.2584C71.975 39.8122 72.2391 39.2734 72.4126 38.6628C72.5805 38.0578 72.6673 37.3942 72.6673 36.6928C72.6673 35.9915 72.5805 35.3279 72.4126 34.7229H72.4107ZM70.6698 36.6966C70.6698 37.7572 70.483 38.5985 70.1133 39.1903C69.7436 39.7763 69.1928 40.0637 68.4176 40.0637C67.6423 40.0637 67.0916 39.7801 66.7313 39.194C66.3672 38.6023 66.1786 37.7629 66.1786 36.7004C66.1786 35.6379 66.3654 34.8023 66.7313 34.2162C67.0916 33.6358 67.6423 33.3523 68.4176 33.3523C69.1928 33.3523 69.7436 33.6358 70.1133 34.2162C70.483 34.7928 70.6698 35.6341 70.6698 36.6947V36.6966Z" fill="white"/>
<path fill-rule="evenodd" clip-rule="evenodd" d="M87.7025 39.7688C87.644 39.5911 87.4856 39.6592 87.4856 39.6592C87.2366 39.7594 86.9744 39.8558 86.6953 39.903C86.4104 39.9503 86.1011 39.9749 85.7672 39.9749C84.9467 39.9749 84.2941 39.7102 83.8282 39.1884C83.3623 38.6647 83.0963 37.8197 83.1001 36.6835C83.1039 35.6474 83.3359 34.8648 83.7527 34.2692C84.1658 33.6794 84.7958 33.3769 85.6333 33.3769C86.335 33.3769 86.8669 33.4639 87.4252 33.6548C87.4252 33.6548 87.5592 33.7172 87.6214 33.53C87.7685 33.0839 87.8779 32.7662 88.0383 32.2766C88.0835 32.1367 87.9722 32.08 87.9326 32.0611C87.7157 31.9703 87.1951 31.8172 86.8009 31.7548C86.4331 31.6924 86.0068 31.6641 85.5277 31.6641C84.8184 31.6641 84.1828 31.7926 83.6377 32.0573C83.0963 32.3163 82.6342 32.6755 82.2701 33.1273C81.9061 33.5792 81.6307 34.1104 81.444 34.7211C81.2629 35.326 81.1686 35.9877 81.1686 36.6929C81.1686 38.2148 81.5458 39.4436 82.2965 40.3398C83.0473 41.2416 84.1734 41.7028 85.6427 41.7028C86.5123 41.7028 87.4007 41.51 88.0439 41.2415C88.0439 41.2415 88.1684 41.1792 88.1156 41.026L87.7025 39.7688Z" fill="white"/>
<path fill-rule="evenodd" clip-rule="evenodd" d="M97.9145 34.3731C97.7485 33.7871 97.3279 33.1916 97.0582 32.9193C96.6281 32.4883 96.2018 32.1896 95.7831 32.0213C95.238 31.8058 94.5797 31.6621 93.8648 31.6621C93.0292 31.6621 92.2671 31.7907 91.6503 32.061C91.0335 32.3295 90.5148 32.6943 90.1055 33.15C89.6943 33.6056 89.3906 34.1482 89.1982 34.7626C89.0002 35.3714 88.9021 36.0387 88.9021 36.7439C88.9021 37.4491 89.0058 38.1259 89.2077 38.7252C89.4095 39.3301 89.7358 39.8633 90.1772 40.3038C90.6186 40.7462 91.1826 41.0959 91.8616 41.336C92.5369 41.5761 93.3555 41.7066 94.293 41.7009C96.232 41.6952 97.2487 41.2925 97.6693 41.0808C97.7429 41.043 97.8146 40.9749 97.7259 40.784L97.2845 39.6459C97.2185 39.4776 97.0299 39.5362 97.0299 39.5362C96.547 39.7045 95.868 39.9975 94.276 39.9975C93.2386 39.9975 92.4652 39.7102 91.9842 39.2678C91.49 38.8121 91.2467 38.1448 91.2052 37.2052L97.9108 37.209C97.9108 37.209 98.0881 37.209 98.1069 37.0464C98.1183 36.9783 98.3408 35.774 97.9108 34.3731H97.9145ZM91.2448 35.6738C91.3391 35.084 91.5145 34.5943 91.7843 34.2106C92.1936 33.6302 92.8217 33.3088 93.7026 33.3088C94.5834 33.3088 95.1644 33.6302 95.5794 34.2106C95.8548 34.5943 95.9793 35.1029 96.0264 35.6738H91.2448Z" fill="white"/>
<path fill-rule="evenodd" clip-rule="evenodd" d="M46.9146 34.3731C46.7618 33.7871 46.377 33.1916 46.1299 32.9193C45.7357 32.4883 45.3452 32.1896 44.9604 32.0213C44.4568 31.8058 43.857 31.6621 43.2024 31.6621C42.4366 31.6621 41.7387 31.7907 41.1728 32.061C40.607 32.3295 40.1316 32.6943 39.7563 33.15C39.3847 33.6056 39.1055 34.1482 38.9245 34.7626C38.7434 35.3714 38.6528 36.0387 38.6528 36.7439C38.6528 37.4491 38.7471 38.1259 38.9339 38.7252C39.1187 39.3301 39.4186 39.8633 39.8223 40.3038C40.226 40.7462 40.7447 41.0959 41.3671 41.336C41.9858 41.5761 42.7365 41.7066 43.5967 41.7009C45.3697 41.6952 46.3053 41.2925 46.692 41.0808C46.758 41.043 46.8259 40.9749 46.7448 40.784L46.3411 39.6459C46.2789 39.4776 46.1091 39.5362 46.1091 39.5362C45.6677 39.7045 45.0434 39.9975 43.5853 39.9975C42.6347 39.9975 41.9273 39.7102 41.4841 39.2678C41.0333 38.8121 40.8088 38.1448 40.7711 37.2052L46.9183 37.209C46.9183 37.209 47.0805 37.209 47.0994 37.0464C47.1088 36.9783 47.3125 35.774 46.9183 34.3731H46.9146ZM40.8031 35.6738C40.888 35.084 41.0502 34.5943 41.2973 34.2106C41.6727 33.6302 42.248 33.3088 43.0553 33.3088C43.8626 33.3088 44.3964 33.6302 44.7756 34.2106C45.0283 34.5943 45.1377 35.1029 45.1849 35.6738H40.8013H40.8031Z" fill="white"/>
<path d="M29.5762 35.3846C29.331 35.3657 29.0217 35.3562 28.6426 35.3562C28.1295 35.3562 27.6353 35.4243 27.1732 35.5528C26.7073 35.6833 26.2866 35.8837 25.9264 36.1521C25.5604 36.4206 25.27 36.7666 25.0568 37.173C24.8437 37.5814 24.738 38.0654 24.738 38.6023C24.738 39.1392 24.8305 39.6289 25.0115 40.0183C25.1964 40.4115 25.4548 40.7386 25.7924 40.9882C26.1244 41.2377 26.5356 41.4249 27.0072 41.5345C27.4787 41.6442 28.0107 41.7028 28.5878 41.7028C29.2028 41.7028 29.812 41.6498 30.4043 41.544C30.9909 41.4381 31.7077 41.2906 31.9114 41.2415C32.1095 41.1942 32.332 41.1318 32.332 41.1318C32.4792 41.094 32.4697 40.9296 32.4697 40.9296L32.466 35.2598C32.466 34.0177 32.1472 33.097 31.5191 32.5204C30.8909 31.9495 29.9705 31.6621 28.7746 31.6621C28.3257 31.6621 27.6051 31.7245 27.1713 31.8152C27.1713 31.8152 25.8679 32.0799 25.3284 32.5166C25.3284 32.5166 25.2077 32.5941 25.2737 32.7605L25.6981 33.9402C25.7491 34.0933 25.8924 34.0404 25.8924 34.0404C25.8924 34.0404 25.9377 34.0215 25.9886 33.9875C27.1392 33.339 28.5897 33.3598 28.5897 33.3598C29.2367 33.3598 29.7309 33.494 30.0685 33.7625C30.3968 34.0215 30.559 34.4147 30.559 35.239V35.5018C30.0553 35.4243 29.58 35.3827 29.58 35.3827L29.5762 35.3846ZM27.2015 39.7404C26.9657 39.5495 26.9336 39.5003 26.8544 39.3717C26.7337 39.1808 26.6733 38.9123 26.6733 38.5664C26.6733 38.0238 26.8487 37.6306 27.2052 37.3678C27.2015 37.3678 27.7183 36.9027 28.9387 36.9216C29.7932 36.9311 30.5609 37.0653 30.5609 37.0653V39.886C30.5609 39.886 29.8026 40.0542 28.9481 40.1072C27.7372 40.1847 27.1977 39.7423 27.2015 39.7423V39.7404Z" fill="white"/>
<path fill-rule="evenodd" clip-rule="evenodd" d="M80.3858 32.0902C80.431 31.9465 80.3367 31.8766 80.299 31.8577C80.199 31.818 79.7011 31.6989 79.3163 31.6743C78.5825 31.6251 78.1694 31.7594 77.8073 31.9409C77.4451 32.1186 77.0415 32.4116 76.8208 32.7387V31.956C76.8208 31.8463 76.7529 31.7632 76.6529 31.7632H75.1533C75.0534 31.7632 74.9855 31.8482 74.9855 31.956V41.5089C74.9855 41.6186 75.0666 41.7017 75.1628 41.7017H76.7038C76.8038 41.7017 76.8811 41.6129 76.8811 41.5089V36.7391C76.8811 36.1001 76.9453 35.4611 77.0754 35.0603C77.2018 34.6632 77.3734 34.3475 77.5866 34.1188C77.7997 33.89 78.045 33.7331 78.3109 33.6442C78.5825 33.5554 78.8862 33.5251 79.0937 33.5251C79.4012 33.5251 79.7369 33.6102 79.7369 33.6102C79.8501 33.6253 79.9142 33.5516 79.95 33.4363C80.0444 33.1395 80.3311 32.2623 80.3858 32.0883V32.0902Z" fill="white"/>
<path fill-rule="evenodd" clip-rule="evenodd" d="M64.8168 27.2524C64.6206 27.1862 64.4376 27.1465 64.2037 27.1011C63.9642 27.0558 63.6812 27.0293 63.3606 27.0293C62.2383 27.0293 61.3555 27.3639 60.733 28.0275C60.1144 28.6854 59.6975 29.6855 59.4862 30.9975L59.4089 31.4437H57.9999C57.9999 31.4437 57.8282 31.438 57.7943 31.6365L57.5642 32.9996C57.5491 33.132 57.6019 33.2133 57.766 33.2133H59.1373L57.7471 41.4144C57.6377 42.0742 57.5114 42.6149 57.3774 43.0309C57.2435 43.4354 57.1096 43.7398 56.9455 43.9629C56.787 44.1765 56.638 44.3334 56.3796 44.4242C56.1646 44.4998 55.9194 44.5357 55.6515 44.5357C55.5025 44.5357 55.3007 44.5111 55.1536 44.479C55.0045 44.4488 54.9291 44.4128 54.8178 44.3618C54.8178 44.3618 54.6556 44.2956 54.5915 44.4677C54.5386 44.6038 54.1746 45.6682 54.1312 45.8005C54.0878 45.9328 54.1501 46.033 54.2274 46.0633C54.4104 46.1351 54.5443 46.1748 54.7933 46.241C55.1385 46.328 55.4308 46.3317 55.6987 46.3317C56.2702 46.3317 56.787 46.2448 57.219 46.0841C57.6547 45.9177 58.0301 45.6285 58.3658 45.2371C58.7261 44.8155 58.9562 44.375 59.1712 43.7719C59.3863 43.1745 59.5692 42.4334 59.7183 41.5714L61.1141 33.2189H63.1569C63.1569 33.2189 63.3304 33.2246 63.3625 33.0261L63.5926 31.663C63.6077 31.5307 63.5549 31.4494 63.3908 31.4494H61.4102C61.4196 31.404 61.5102 30.6629 61.7365 29.9691C61.8327 29.6761 62.0138 29.4322 62.1722 29.2696C62.325 29.107 62.4986 28.9917 62.691 28.9293C62.8871 28.8631 63.1135 28.8272 63.3568 28.8272C63.5435 28.8272 63.7265 28.8518 63.8642 28.882C64.0566 28.9217 64.132 28.9482 64.1811 28.9633C64.3829 29.0295 64.4112 28.9633 64.4489 28.8612L64.9243 27.4868C64.9809 27.3242 64.862 27.2581 64.8186 27.2429L64.8168 27.2524Z" fill="white"/>
<path fill-rule="evenodd" clip-rule="evenodd" d="M36.3327 41.5014C36.3327 41.6148 36.2761 41.7037 36.195 41.7037H34.9237C34.8426 41.7037 34.786 41.611 34.786 41.5014V27.2316C34.786 27.1182 34.8407 27.0293 34.9237 27.0293H36.195C36.2761 27.0293 36.3327 27.1163 36.3327 27.2316V41.5014Z" fill="white"/>
</g>
<defs>
<clipPath id="clip0_317_164">
<rect width="109" height="78" fill="white"/>
</clipPath>
</defs>
</svg>
