<svg width="53" height="53" viewBox="0 0 53 53" fill="none" xmlns="http://www.w3.org/2000/svg">
<path d="M20.7928 14.482C21.2392 14.9373 21.4893 15.5496 21.4893 16.1873C21.4893 16.825 21.2392 17.4373 20.7928 17.8927L16.8961 21.7895C16.4407 22.236 15.8285 22.486 15.1908 22.486C14.5531 22.486 13.9408 22.236 13.4855 21.7895L6.93179 15.2382C5.6586 13.9676 3.51862 14.3817 3.21254 16.1539C2.8126 18.4733 2.97875 20.8551 3.69687 23.0965C4.41498 25.338 5.6638 27.3728 7.33713 29.028C9.01046 30.6832 11.0588 31.9097 13.3079 32.6033C15.557 33.2969 17.9403 33.4371 20.2552 33.0118C22.3643 32.626 24.6458 32.9552 26.1607 34.4676L40.477 48.7868C40.9534 49.2827 41.5239 49.6786 42.1552 49.9512C42.7865 50.2239 43.4658 50.3679 44.1534 50.3747C44.841 50.3816 45.523 50.2513 46.1596 49.9913C46.7962 49.7313 47.3745 49.347 47.8608 48.8607C48.347 48.3745 48.7313 47.7961 48.9913 47.1595C49.2513 46.5229 49.3816 45.8408 49.3747 45.1532C49.3679 44.4656 49.2239 43.7863 48.9512 43.155C48.6786 42.5237 48.2827 41.9532 47.7869 41.4768L33.4681 27.1602C31.9557 25.6452 31.6264 23.3611 32.0122 21.2545C32.4363 18.9397 32.2953 16.5568 31.6012 14.3083C30.9072 12.0597 29.6807 10.0118 28.0258 8.33877C26.371 6.6657 24.3367 5.41682 22.0959 4.69825C19.8551 3.97969 17.4739 3.81266 15.1548 4.21137C13.3826 4.52003 12.9685 6.65749 14.2391 7.93071L20.7928 14.482Z" stroke="#00C4F3" stroke-width="5" stroke-linecap="round" stroke-linejoin="round"/>
</svg>
